<svg aria-hidden="true" style="position:absolute;width:0;height:0" xmlns="http://www.w3.org/2000/svg" overflow="hidden"><defs><symbol id="icon-css3" viewBox="0 0 32 32"><path fill="var(--color1, #1572b6)" d="M2 0h28l-2.547 28.751L15.969 32l-11.42-3.251zm22.787 5.884L7.214 5.88l.284 3.496 13.5.003-.34 3.621h-8.853l.32 3.431h8.243l-.488 4.697L16 22.2l-3.941-1.08-.251-2.813h-3.48l.387 5.14 7.287 2.271 7.164-2.04z"/></symbol><symbol id="icon-github" viewBox="0 0 32 32"><path d="M16 .396c-8.84 0-16 7.164-16 16 0 7.071 4.584 13.067 10.94 15.18.8.151 1.093-.344 1.093-.769 0-.38-.013-1.387-.02-2.72-4.451.965-5.389-2.147-5.389-2.147-.728-1.847-1.78-2.34-1.78-2.34-1.449-.992.112-.972.112-.972 1.607.112 2.451 1.648 2.451 1.648 1.427 2.447 3.745 1.74 4.66 1.331.144-1.035.556-1.74 1.013-2.14-3.553-.4-7.288-1.776-7.288-7.907 0-1.747.62-3.173 1.647-4.293-.18-.404-.72-2.031.14-4.235 0 0 1.34-.429 4.4 1.64 1.28-.356 2.64-.532 4-.54 1.36.008 2.72.184 4 .54 3.04-2.069 4.38-1.64 4.38-1.64.86 2.204.32 3.831.16 4.235 1.02 1.12 1.64 2.547 1.64 4.293 0 6.147-3.74 7.5-7.3 7.893.56.48 1.08 1.461 1.08 2.96 0 2.141-.02 3.861-.02 4.381 0 .42.28.92 1.1.76C27.42 29.455 32 23.455 32 16.395c0-8.836-7.164-16-16-16z"/></symbol><symbol id="icon-gmail" viewBox="0 0 32 32"><path fill="var(--color2, #d14836)" d="M32 6v20c0 1.133-.867 2-2 2h-2V9.849l-12 8.617L4 9.849V28H2c-1.135 0-2-.867-2-2V6c0-.567.216-1.067.575-1.424A1.98 1.98 0 012 4h.667L16 13.667 29.333 4H30c.567 0 1.067.216 1.425.576.36.357.575.857.575 1.424z"/></symbol><symbol id="icon-html5" viewBox="0 0 32 32"><path fill="var(--color3, #e34f26)" d="M2 0h28l-2.547 28.751L15.969 32 4.55 28.749zm9.375 13l-.309-3.624 13.412.004.307-3.496L7.217 5.88l.931 10.68h12.168l-.435 4.568-3.88 1.072-3.94-1.08-.251-2.813H8.331l.44 5.561L16 25.801l7.172-1.924.992-10.876z"/></symbol><symbol id="icon-javascript" viewBox="0 0 32 32"><path fill="var(--color4, #f7df1e)" d="M0 0h32v32H0zm29.379 24.368c-.233-1.46-1.184-2.687-4.004-3.831-.981-.46-2.072-.78-2.396-1.52-.121-.44-.14-.68-.061-.94.2-.861 1.22-1.12 2.02-.88.52.16 1 .56 1.301 1.2 1.379-.901 1.379-.901 2.34-1.5-.36-.56-.539-.801-.781-1.04-.84-.94-1.959-1.42-3.779-1.379l-.94.119c-.901.22-1.76.7-2.28 1.34-1.52 1.721-1.081 4.721.759 5.961 1.82 1.36 4.481 1.659 4.821 2.94.32 1.56-1.16 2.06-2.621 1.88-1.081-.24-1.68-.781-2.34-1.781l-2.44 1.401c.28.64.6.919 1.08 1.479 2.32 2.341 8.12 2.221 9.161-1.339.039-.12.32-.94.099-2.2zm-11.978-9.66h-2.997c0 2.584-.012 5.152-.012 7.74 0 1.643.084 3.151-.184 3.615-.44.919-1.573.801-2.088.64-.528-.261-.796-.621-1.107-1.14-.084-.14-.147-.261-.169-.261l-2.433 1.5c.407.84 1 1.563 1.765 2.023 1.14.68 2.672.9 4.276.54 1.044-.301 1.944-.921 2.415-1.881.68-1.24.536-2.76.529-4.461.016-2.739 0-5.479 0-8.239z"/></symbol><symbol id="icon-npm" viewBox="0 0 32 32"><path fill="var(--color5, #cb3837)" d="M0 9.779v10.667h8.888v1.776H16v-1.776h16V9.779zm8.888 8.885H7.112v-5.333h-1.78v5.333H1.78v-7.108h7.108zm5.333 0v1.781h-3.553v-8.889h7.112v7.109h-3.559zm16.002 0H28.45v-5.333h-1.781v5.333h-1.78v-5.333h-1.773v5.333h-3.561v-7.108h10.669zM14.22 13.333H16v3.556h-1.78z"/></symbol><symbol id="icon-phone" viewBox="0 0 32 32"><path d="M22 20c-2 2-2 4-4 4s-4-2-6-4-4-4-4-6 2-2 4-4-4-8-6-8-6 6-6 6c0 4 4.109 12.109 8 16s12 8 16 8c0 0 6-4 6-6s-6-8-8-6z"/></symbol><symbol id="icon-sass" viewBox="0 0 32 32"><path fill="var(--color6, #c69)" d="M16 0c8.836 0 16 7.164 16 16s-7.164 16-16 16S0 24.836 0 16 7.164 0 16 0zm-3.18 21.331c.233.86.208 1.664-.032 2.389l-.087.24c-.032.081-.069.16-.104.235a4.492 4.492 0 01-.74 1.08c-.931 1.012-2.229 1.396-2.787 1.073-.6-.349-.301-1.78.779-2.92 1.161-1.224 2.827-2.012 2.827-2.012v-.004zM26.035 6.849c-.723-2.844-5.436-3.779-9.896-2.193-2.652.943-5.525 2.424-7.591 4.356-2.457 2.295-2.848 4.295-2.687 5.131.569 2.948 4.609 4.876 6.271 6.307v.008c-.489.24-4.075 2.039-4.915 3.9-.9 1.96.14 3.361.82 3.54 2.1.581 4.26-.48 5.42-2.199 1.12-1.681 1.021-3.841.539-4.901.661-.18 1.44-.26 2.44-.139 2.801.32 3.361 2.08 3.24 2.8-.12.719-.697 1.139-.899 1.259-.2.121-.26.16-.241.241.02.12.121.12.28.1.22-.04 1.461-.6 1.521-1.961.06-1.72-1.581-3.639-4.5-3.6-1.2.021-1.961.121-2.5.341a.479.479 0 00-.14-.14c-1.8-1.94-5.14-3.3-5-5.88.04-.94.38-3.419 6.4-6.419 4.94-2.461 8.881-1.78 9.561-.28.977 2.139-2.101 6.12-7.241 6.699-1.96.22-2.98-.539-3.241-.82-.279-.3-.319-.32-.419-.259-.16.08-.06.34 0 .5.16.4.78 1.1 1.861 1.46.939.3 3.24.479 6-.6 3.099-1.199 5.519-4.54 4.819-7.34z"/></symbol><symbol id="icon-telegram" viewBox="0 0 32 32"><path fill="var(--color7, #2ca5e0)" d="M31.88 5.053l-4.813 22.733c-.333 1.613-1.307 2-2.667 1.253l-7.333-5.427-3.547 3.427c-.4.4-.733.747-1.467.747-.96 0-.8-.36-1.12-1.267L8.4 18.266l-7.267-2.267c-1.573-.467-1.587-1.547.347-2.333L29.827 2.733c1.293-.573 2.533.32 2.053 2.32z"/></symbol><symbol id="icon-webpack" viewBox="0 0 32 32"><path fill="var(--color8, #8dd6f9)" d="M28.021 24.16l-11.553 6.506v-5.068l7.198-3.942zm.79-.712V9.841l-4.228 2.429v8.746zm-24.91.712l11.553 6.506v-5.068l-7.198-3.942zm-.79-.712V9.841l4.228 2.429v8.746zM3.605 8.96l11.849-6.674v4.9l-7.649 4.19zm24.712 0L16.468 2.286v4.9l7.649 4.19zM15.454 24.446l-7.102-3.887v-7.703l7.101 4.083zm1.014 0l7.101-3.887v-7.703l-7.101 4.083zM8.833 11.965l7.129-3.904 7.129 3.904-7.129 4.099z"/></symbol></defs></svg>